<svg width="97" height="24" viewBox="0 0 97 24" fill="none" xmlns="http://www.w3.org/2000/svg">
<path d="M80.51 21.6451C80.51 22.9457 81.5637 24 82.8635 24C84.1633 24 85.2171 22.9457 85.2171 21.6451C85.2171 20.3446 84.1633 19.2903 82.8635 19.2903C81.5637 19.2903 80.51 20.3446 80.51 21.6451Z" fill="black"/>
<path d="M80.7821 16.1111L80.8159 13.29C82.1448 13.29 83.4511 13.5391 84.735 14.0374C86.0188 14.5357 87.1788 15.2933 88.2149 16.3103C89.251 17.3272 90.0197 18.4696 90.5211 19.7374C91.0224 21.0053 91.2673 22.2968 91.2556 23.612H88.4176C88.4176 22.6385 88.2318 21.6925 87.8601 20.7743C87.4885 19.856 86.931 19.0318 86.1878 18.3017C85.4445 17.5715 84.6055 17.0239 83.6707 16.6588C82.736 16.2937 81.7731 16.1111 80.7821 16.1111ZM80.7821 10.4689V7.68092C82.8768 7.6588 84.9152 8.03495 86.8973 8.80938C88.8793 9.5838 90.67 10.7565 92.2691 12.3275C93.8683 13.8985 95.062 15.6575 95.8504 17.6047C96.6387 19.5518 97.0216 21.5543 96.9991 23.612H94.1611C94.1611 21.9083 93.8345 20.2545 93.1813 18.6508C92.5281 17.0471 91.5484 15.6031 90.242 14.3189C88.9356 13.0347 87.466 12.0724 85.833 11.432C84.2 10.7917 82.5164 10.4706 80.7821 10.4689Z" fill="black"/>
<path d="M37.5143 22.32H0V20.88H37.5143V22.32Z" fill="black"/>
<path d="M82.5688 22.32H42.0929V20.88H82.5688V22.32Z" fill="black"/>
<path d="M36.6632 24V19.2H38.2117V24H36.6632Z" fill="black"/>
<path d="M40.5443 24V19.2H42.0929V24H40.5443Z" fill="black"/>
<path d="M69.9398 14.4C67.6564 14.4 65.9642 13.8168 64.8633 12.6503C63.776 11.4704 63.2324 9.64022 63.2324 7.15978C63.2324 4.75978 63.8032 2.96983 64.9449 1.78994C66.0866 0.596648 67.7855 0 70.0417 0C70.4902 0 70.9659 0.0335211 71.4688 0.10056C71.9717 0.167599 72.4474 0.268157 72.8959 0.402235C73.3444 0.522905 73.7046 0.670391 73.9764 0.844693C74.2619 1.00559 74.4046 1.1933 74.4046 1.40782C74.4046 1.59553 74.3298 1.84358 74.1803 2.15196C74.0308 2.44693 73.8541 2.71508 73.6502 2.95642C73.4464 3.18436 73.2561 3.29832 73.0794 3.29832C72.9979 3.29832 72.8348 3.24469 72.5901 3.13743C72.3591 3.03017 72.0261 2.92291 71.5911 2.81564C71.1698 2.70838 70.6329 2.65475 69.9805 2.65475C69.1786 2.65475 68.5127 2.82235 67.9826 3.15754C67.4661 3.49274 67.0788 3.99553 66.8205 4.66592C66.5759 5.33631 66.4535 6.1743 66.4535 7.17989C66.4535 7.93073 66.5215 8.59441 66.6574 9.17095C66.8069 9.74748 67.0244 10.2302 67.3098 10.619C67.6088 10.9944 67.9758 11.2827 68.4107 11.4838C68.8457 11.6715 69.3553 11.7654 69.9398 11.7654C70.3747 11.7654 70.7688 11.7385 71.1222 11.6849C71.4892 11.6313 71.9241 11.5441 72.427 11.4235L71.53 12.7911V9.07039H69.7359C69.3282 9.07039 69.1243 8.73519 69.1243 8.0648V7.42123C69.1243 6.75084 69.3282 6.41564 69.7359 6.41564H73.8745C74.4182 6.41564 74.69 6.6838 74.69 7.22011V12.8112C74.69 13.1598 74.5133 13.4413 74.1599 13.6559C73.8065 13.857 73.3716 14.0112 72.8551 14.1184C72.3387 14.2257 71.8154 14.2994 71.2853 14.3397C70.7552 14.3799 70.3067 14.4 69.9398 14.4Z" fill="#C01F15"/>
<path d="M56.8887 14.4C56.3179 14.4 55.747 14.3061 55.1762 14.1184C54.6053 13.9307 54.0821 13.6358 53.6064 13.2335C53.1443 12.8179 52.7705 12.2749 52.4851 11.6045C52.2132 10.9341 52.0773 10.1162 52.0773 9.15084C52.0773 7.86369 52.2404 6.74413 52.5666 5.79218C52.9064 4.84022 53.3413 4.03576 53.8714 3.37877C54.4015 2.70838 54.9655 2.15866 55.5635 1.72961C56.1752 1.28715 56.7528 0.951958 57.2965 0.724025C57.8537 0.482684 58.3158 0.315086 58.6828 0.221232C59.0498 0.127377 59.2536 0.0804485 59.2944 0.0804485C59.5255 0.0804485 59.7157 0.194415 59.8653 0.422348C60.0148 0.636874 60.1235 0.878214 60.1915 1.14637C60.273 1.41453 60.3138 1.61564 60.3138 1.74972C60.3138 1.8838 60.2934 1.98436 60.2526 2.0514C60.2254 2.10503 60.1575 2.14525 60.0487 2.17207C59.0566 2.46704 58.1527 2.95643 57.3372 3.64023C56.5353 4.31062 55.9645 5.1419 55.6247 6.13408C56.0189 5.91955 56.379 5.78548 56.7052 5.73184C57.045 5.66481 57.3644 5.63128 57.6634 5.63128C58.044 5.63128 58.4585 5.70503 58.9071 5.85251C59.3692 5.98659 59.8109 6.21452 60.2322 6.53631C60.6536 6.8581 61.0001 7.29386 61.272 7.84358C61.5438 8.3933 61.6797 9.0771 61.6797 9.89497C61.6797 10.7129 61.537 11.4101 61.2516 11.9866C60.9798 12.5497 60.6128 13.0123 60.1507 13.3743C59.6886 13.7229 59.1721 13.9844 58.6012 14.1587C58.0304 14.3196 57.4596 14.4 56.8887 14.4ZM56.9091 12.0469C57.2353 12.0469 57.5275 11.9598 57.7858 11.7855C58.044 11.6112 58.2479 11.3698 58.3974 11.0615C58.5605 10.7397 58.642 10.3777 58.642 9.97542C58.642 9.55978 58.5673 9.20447 58.4178 8.9095C58.2818 8.61453 58.0712 8.38659 57.7858 8.2257C57.5139 8.06481 57.1809 7.98436 56.7868 7.98436C56.515 7.98436 56.2431 8.03128 55.9713 8.12514C55.6995 8.20559 55.4344 8.31955 55.1762 8.46704C55.1626 8.61453 55.1558 8.76872 55.1558 8.92961C55.1558 9.0771 55.1558 9.23129 55.1558 9.39218C55.1558 10.0492 55.2306 10.5721 55.3801 10.9609C55.5432 11.3497 55.7606 11.6313 56.0325 11.8056C56.3043 11.9665 56.5965 12.0469 56.9091 12.0469Z" fill="#C01F15"/>
<path d="M39.3812 14.2793C38.5657 14.2793 38.1579 14.0648 38.1579 13.6358V0.764252C38.1579 0.335202 38.5657 0.120676 39.3812 0.120676H40.2578C40.5568 0.120676 40.8151 0.154193 41.0325 0.221232C41.2636 0.288271 41.4539 0.435757 41.6034 0.66369L46.1905 7.64246C46.34 7.84358 46.4691 8.03799 46.5779 8.2257C46.7002 8.41341 46.8157 8.61453 46.9245 8.82905L47.006 8.80894C46.9924 8.58101 46.9788 8.37319 46.9652 8.18548C46.9652 7.98436 46.9652 7.73632 46.9652 7.44134V0.764252C46.9652 0.335202 47.373 0.120676 48.1885 0.120676H48.7797C49.5952 0.120676 50.0029 0.335202 50.0029 0.764252V13.6358C50.0029 14.0648 49.5952 14.2793 48.7797 14.2793H48.005C47.706 14.2793 47.4409 14.2458 47.2099 14.1788C46.9924 14.1117 46.8089 13.9642 46.6594 13.7363L41.9704 6.65699C41.8344 6.45587 41.7053 6.26146 41.583 6.07375C41.4607 5.88604 41.3452 5.68492 41.2364 5.47039L41.1549 5.49051C41.1821 5.71844 41.1956 5.93296 41.1956 6.13408C41.1956 6.32179 41.1956 6.56313 41.1956 6.85811V13.6358C41.1956 14.0648 40.7879 14.2793 39.9724 14.2793H39.3812Z" fill="#C01F15"/>
<path d="M28.0071 14.2391C27.4635 14.2391 27.1917 13.9709 27.1917 13.4346V0.965365C27.1917 0.429052 27.4635 0.160895 28.0071 0.160895H35.1631C35.5708 0.160895 35.7747 0.496092 35.7747 1.16648V1.78995C35.7747 2.46034 35.5708 2.79553 35.1631 2.79553H30.3313V5.71173H34.6126C35.0204 5.71173 35.2242 6.04693 35.2242 6.71732V7.34078C35.2242 8.01117 35.0204 8.34637 34.6126 8.34637H30.3313V11.6045H35.1835C35.5912 11.6045 35.7951 11.9397 35.7951 12.6101V13.2335C35.7951 13.9039 35.5912 14.2391 35.1835 14.2391H28.0071Z" fill="#C01F15"/>
<path d="M16.6247 14.2793C15.8092 14.2793 15.4015 14.0648 15.4015 13.6358V0.965365C15.4015 0.429052 15.6733 0.160895 16.217 0.160895H20.4983C20.9468 0.160895 21.4497 0.214527 22.0069 0.32179C22.5642 0.415645 23.0943 0.610058 23.5971 0.90503C24.1136 1.2 24.535 1.64246 24.8612 2.2324C25.1873 2.82235 25.3504 3.6 25.3504 4.56536C25.3504 5.34302 25.2281 5.9933 24.9835 6.5162C24.7388 7.03911 24.4194 7.46816 24.0253 7.80335C23.6447 8.12514 23.237 8.37319 22.802 8.54749C22.3807 8.70838 21.9798 8.82235 21.5992 8.88938C21.2186 8.94302 20.9196 8.96983 20.7022 8.96983H18.5411V13.6358C18.5411 14.0648 18.1334 14.2793 17.3179 14.2793H16.6247ZM18.5411 6.31508H20.3556C20.5459 6.31508 20.7429 6.29497 20.9468 6.25475C21.1643 6.20112 21.3613 6.11397 21.538 5.9933C21.7147 5.85922 21.8574 5.67821 21.9662 5.45028C22.0749 5.22235 22.1293 4.92737 22.1293 4.56536C22.1293 4.08268 22.0341 3.71397 21.8438 3.45922C21.6536 3.20447 21.4225 3.03017 21.1507 2.93631C20.8788 2.84246 20.6138 2.79553 20.3556 2.79553H18.5411V6.31508Z" fill="#C01F15"/>
<path d="M6.54431 14.4C4.45122 14.4 2.83383 13.7832 1.69214 12.5497C0.564047 11.3028 0 9.51955 0 7.2C0 4.88045 0.564047 3.10391 1.69214 1.87039C2.83383 0.623464 4.45122 0 6.54431 0C8.65099 0 10.2616 0.623464 11.3761 1.87039C12.5042 3.10391 13.0682 4.88045 13.0682 7.2C13.0682 9.51955 12.5042 11.3028 11.3761 12.5497C10.2616 13.7832 8.65099 14.4 6.54431 14.4ZM6.54431 11.7654C7.63163 11.7654 8.45391 11.3765 9.01117 10.5989C9.56842 9.80782 9.84704 8.67486 9.84704 7.2C9.84704 5.72514 9.56842 4.59888 9.01117 3.82123C8.45391 3.04358 7.63163 2.65475 6.54431 2.65475C5.45699 2.65475 4.62791 3.04358 4.05706 3.82123C3.49981 4.59888 3.22119 5.72514 3.22119 7.2C3.22119 8.67486 3.49981 9.80782 4.05706 10.5989C4.62791 11.3765 5.45699 11.7654 6.54431 11.7654Z" fill="#C01F15"/>
<path d="M82.5688 22.32H42.0929V20.88H82.5688V22.32Z" fill="black"/>
</svg>
